<svg width="65" height="24" viewBox="0 0 65 24" fill="none" xmlns="http://www.w3.org/2000/svg">
<path d="M13.7637 20.5056V16.2134H14.8304V19.6026H16.5285V20.5056H13.7637Z" fill="#1E5779"/>
<path d="M33.6422 20.5056L33.3018 19.6635H31.6026L31.2801 20.5056H30.127L31.9683 16.2134H32.9971L34.8196 20.5056H33.6422ZM32.4637 17.3597L31.9062 18.8327H33.0099L32.4637 17.3597Z" fill="#1E5779"/>
<path d="M52.0984 19.2562C52.0984 19.4902 52.0509 19.6881 51.9561 19.8469C51.8611 20.0067 51.7346 20.1345 51.5776 20.2314C51.4205 20.3283 51.2414 20.3983 51.0411 20.4406C50.8408 20.4829 50.6353 20.5045 50.4245 20.5045H48.6758V16.2123H50.4234C50.5931 16.2123 50.7659 16.2298 50.9442 16.2639C51.1212 16.2979 51.2826 16.3566 51.4279 16.4401C51.5724 16.5226 51.6904 16.635 51.781 16.7761C51.8717 16.9174 51.917 17.0977 51.917 17.3152C51.917 17.5534 51.8507 17.7502 51.7188 17.9059C51.586 18.0616 51.4132 18.174 51.1982 18.2419V18.2544C51.3225 18.2749 51.4385 18.312 51.5481 18.3667C51.6576 18.4213 51.7526 18.4914 51.8337 18.576C51.9149 18.6604 51.9782 18.7594 52.0255 18.8728C52.0741 18.9882 52.0984 19.1151 52.0984 19.2562ZM50.8956 17.4565C50.8956 17.3112 50.8388 17.205 50.7249 17.1379C50.611 17.071 50.4425 17.038 50.22 17.038H49.6993V17.9235H50.2696C50.4677 17.9235 50.6216 17.8843 50.7312 17.8048C50.8408 17.7255 50.8956 17.6101 50.8956 17.4565ZM51.0379 19.1593C51.0379 18.982 50.9694 18.8584 50.8334 18.7893C50.6975 18.7203 50.5151 18.6862 50.2885 18.6862H49.6993V19.6686H50.2948C50.377 19.6686 50.4635 19.6614 50.552 19.647C50.6405 19.6324 50.7217 19.6077 50.7934 19.5706C50.865 19.5346 50.9241 19.483 50.9694 19.416C51.0147 19.351 51.0379 19.2645 51.0379 19.1593Z" fill="#1E5779"/>
<path d="M52.0534 0H50.2119V14.3074H52.0534V0Z" fill="#1E5779"/>
<path d="M42.5493 12.5283H48.4266V14.3074H40.709V0H42.5493V12.5283Z" fill="#1E5779"/>
<path fill-rule="evenodd" clip-rule="evenodd" d="M11.5007 24C23.0131 24 28.5674 12.3105 29.3434 10.5382L35.6592 10.5438C36.4444 12.3352 41.9991 24 53.4993 24C64.2115 24 65 15.3268 65 13.8271C65 10.2358 62.2995 7.09905 58.5481 7.21863C54.8895 7.3351 53.921 10.1244 53.921 11.4696C53.921 12.8921 54.858 14.3126 56.5349 14.3126C58.0654 14.3126 58.8433 13.2148 58.7537 12.2551C58.7116 11.8077 58.3837 11.0769 57.4783 11.0769C56.867 11.0769 56.6319 11.5892 56.6434 11.8747C56.6562 12.1953 56.9239 12.4293 57.1568 12.4293C57.2896 12.4293 57.5331 12.3736 57.531 12.1077C57.5288 11.8418 57.3128 11.8593 57.3128 11.8593C57.3128 11.8593 57.4973 11.8778 57.5121 12.0489C57.5215 12.1664 57.472 12.386 57.1789 12.386C56.7933 12.386 56.6857 12.0118 56.6972 11.8283C56.7193 11.4635 57.1178 11.147 57.4878 11.1583C58.5461 11.1893 58.7021 12.1912 58.524 12.754C58.1919 13.8013 57.0672 14.1971 56.1966 14.0507C55.5272 13.9384 54.1949 13.389 54.1949 11.5562C54.1949 8.27726 57.2939 7.55364 58.7875 7.52478C61.3288 7.4753 64.592 9.68636 64.592 13.8054C64.592 14.9156 64.1588 23.228 53.4097 23.228C43.8533 23.228 38.3961 12.4138 37.6021 10.7254C36.8081 9.03701 35.8745 6.47442 35.338 5.0581C34.8595 3.79435 33.5429 0 33.5429 0H31.5107C31.5107 0 30.0804 3.98505 29.5724 5.31272C29.1229 6.48909 27.8218 9.70734 27.4875 10.5333C27.1909 11.1965 21.6702 23.228 11.5903 23.228C0.841129 23.228 0.408971 14.9156 0.408971 13.8054C0.408971 9.68636 3.6723 7.47531 6.21362 7.52478C7.7072 7.55364 10.8061 8.27726 10.8061 11.5562C10.8061 13.389 9.47379 13.9384 8.80447 14.0507C7.93383 14.1971 6.80916 13.8013 6.47713 12.754C6.29899 12.1912 6.45499 11.1893 7.51326 11.1583C7.88322 11.147 8.28166 11.4635 8.30379 11.8284C8.31539 12.0118 8.20787 12.386 7.8221 12.386C7.52907 12.386 7.47953 12.1665 7.48901 12.0489C7.50377 11.8778 7.68822 11.8593 7.68822 11.8593C7.68822 11.8593 7.47214 11.8418 7.47004 12.1077C7.46793 12.3736 7.71141 12.4293 7.84422 12.4293C8.07718 12.4293 8.34489 12.1953 8.35756 11.8747C8.36914 11.5892 8.1341 11.0769 7.52274 11.0769C6.61732 11.0769 6.28951 11.8077 6.24735 12.2551C6.15774 13.2148 6.93564 14.3126 8.46612 14.3126C10.1431 14.3126 11.0802 12.8921 11.0802 11.4696C11.0802 10.1244 10.1115 7.33512 6.45289 7.21863C2.70047 7.097 0 10.2337 0 13.825C0 15.3269 0.788429 24 11.5007 24ZM30.1268 8.78031H34.7973L32.472 2.32445L30.1268 8.78031Z" fill="#1E5779"/>
<path d="M13.7803 0H18.3C19.1433 0 19.9864 0.135034 20.8297 0.404072C21.6731 0.674141 22.4351 1.0978 23.117 1.67711C23.799 2.25641 24.3502 2.99756 24.7719 3.89951C25.1935 4.80248 25.4043 5.88687 25.4043 7.15269C25.4043 8.3783 25.1935 9.44003 24.7719 10.3358C24.3502 11.2315 23.799 11.9727 23.117 12.5582C22.4351 13.1447 21.6731 13.5817 20.8297 13.8714C19.9864 14.1611 19.1433 14.3054 18.3 14.3054H13.7803V0ZM15.6218 12.5489H17.9279C18.7216 12.5489 19.4552 12.4273 20.132 12.185C20.8076 11.9428 21.3905 11.5923 21.8796 11.1347C22.3698 10.677 22.7502 10.1111 23.0232 9.43694C23.2962 8.76383 23.4322 8.00206 23.4322 7.15371C23.4322 6.26413 23.2951 5.48384 23.0232 4.80969C22.7502 4.13658 22.3687 3.57377 21.8796 3.12228C21.3894 2.6708 20.8065 2.32754 20.132 2.09148C19.4563 1.85543 18.7216 1.73792 17.9279 1.73792H15.6218V12.5489Z" fill="#1E5779"/>
</svg>
