<svg width="24" height="24" viewBox="0 0 24 24" fill="none" xmlns="http://www.w3.org/2000/svg">
<path d="M21 12C21 16.9706 16.9706 21 12 21C7.02944 21 3 16.9706 3 12C3 7.02944 7.02944 3 12 3C16.9706 3 21 7.02944 21 12Z" fill="#8A8E90"/>
<path d="M12 11.175C11.5425 11.175 11.175 11.5425 11.175 12C11.175 12.4575 11.5425 12.825 12 12.825C12.4575 12.825 12.825 12.4575 12.825 12C12.825 11.5425 12.4575 11.175 12 11.175ZM12 4.5C7.86 4.5 4.5 7.86 4.5 12C4.5 16.14 7.86 19.5 12 19.5C16.14 19.5 19.5 16.14 19.5 12C19.5 7.86 16.14 4.5 12 4.5ZM13.6425 13.6425L7.5 16.5L10.3575 10.3575L16.5 7.5L13.6425 13.6425Z" fill="white"/>
</svg>
