<svg width="15" height="15" viewBox="0 0 15 15" fill="none" xmlns="http://www.w3.org/2000/svg">
<path fill-rule="evenodd" clip-rule="evenodd" d="M3.125 0.625H9.63388L13.125 4.11612V13.125C13.125 13.8154 12.5654 14.375 11.875 14.375H3.125C2.43464 14.375 1.875 13.8154 1.875 13.125V1.875C1.875 1.18464 2.43464 0.625 3.125 0.625ZM8.125 1.875H3.125V13.125H11.875V5.625H9.375C8.68464 5.625 8.125 5.06536 8.125 4.375V1.875ZM9.375 2.13388V4.375H11.6161L9.375 2.13388ZM5.18306 7.31694L6.06694 6.43306L7.5 7.86612L8.93306 6.43306L9.81694 7.31694L8.38388 8.75L9.81694 10.1831L8.93306 11.0669L7.5 9.63388L6.06694 11.0669L5.18306 10.1831L6.61612 8.75L5.18306 7.31694Z" fill="#8A8E90"/>
</svg>
