<svg width="15" height="15" viewBox="0 0 15 15" fill="none" xmlns="http://www.w3.org/2000/svg">
<path d="M6.93034 12.149L6.92962 12.1484C5.31018 10.6799 4.00661 9.4966 3.10187 8.39047C2.20287 7.29136 1.75 6.32951 1.75 5.3125C1.75 3.66364 3.03864 2.375 4.6875 2.375C5.62361 2.375 6.52987 2.81322 7.11932 3.50542L7.5 3.95245L7.88068 3.50542C8.47013 2.81322 9.37639 2.375 10.3125 2.375C11.9614 2.375 13.25 3.66364 13.25 5.3125C13.25 6.32952 12.7971 7.29139 11.898 8.39138C10.9933 9.49827 9.68987 10.6829 8.07061 12.1544C8.0704 12.1546 8.07019 12.1548 8.06998 12.155L7.50128 12.6688L6.93034 12.149Z" stroke="#8A8E90"/>
</svg>
